<mxfile host="app.diagrams.net" modified="2023-06-05T17:32:42.232Z" agent="Mozilla/5.0 (Windows NT 10.0; Win64; x64) AppleWebKit/537.36 (KHTML, like Gecko) Chrome/114.0.0.0 Safari/537.36" etag="aD4ytB-9uPfeBvT4wAuT" version="21.3.7" type="github">
  <diagram name="第 1 页" id="NXW5rD5WHw4rGmV8yDXx">
    <mxGraphModel dx="909" dy="644" grid="1" gridSize="10" guides="1" tooltips="1" connect="1" arrows="1" fold="1" page="1" pageScale="1" pageWidth="827" pageHeight="1169" math="0" shadow="0">
      <root>
        <mxCell id="0" />
        <mxCell id="1" parent="0" />
        <mxCell id="VFld33UGMpaozwM7hutt-2" style="edgeStyle=orthogonalEdgeStyle;rounded=0;orthogonalLoop=1;jettySize=auto;html=1;exitX=1;exitY=0.5;exitDx=0;exitDy=0;entryX=0;entryY=0.5;entryDx=0;entryDy=0;fontColor=none;labelBackgroundColor=none;noLabel=1;strokeColor=#FFE599;" edge="1" parent="1" source="VFld33UGMpaozwM7hutt-3" target="VFld33UGMpaozwM7hutt-9">
          <mxGeometry relative="1" as="geometry" />
        </mxCell>
        <mxCell id="VFld33UGMpaozwM7hutt-3" value="CNOT q2,q1" style="ellipse;whiteSpace=wrap;html=1;strokeColor=#FFE599;fillColor=#FFF2CC;" vertex="1" parent="1">
          <mxGeometry x="170" y="260" width="100" height="50" as="geometry" />
        </mxCell>
        <mxCell id="VFld33UGMpaozwM7hutt-4" style="edgeStyle=orthogonalEdgeStyle;orthogonalLoop=1;jettySize=auto;html=1;exitX=1;exitY=0.5;exitDx=0;exitDy=0;curved=1;strokeColor=#FFE599;" edge="1" parent="1" source="VFld33UGMpaozwM7hutt-5" target="VFld33UGMpaozwM7hutt-7">
          <mxGeometry relative="1" as="geometry" />
        </mxCell>
        <mxCell id="VFld33UGMpaozwM7hutt-5" value="CNOT q2,q1" style="ellipse;whiteSpace=wrap;html=1;strokeColor=#FFE599;fillColor=#FFF2CC;" vertex="1" parent="1">
          <mxGeometry x="460" y="260" width="100" height="50" as="geometry" />
        </mxCell>
        <mxCell id="VFld33UGMpaozwM7hutt-6" style="edgeStyle=orthogonalEdgeStyle;rounded=0;orthogonalLoop=1;jettySize=auto;html=1;exitX=1;exitY=0.5;exitDx=0;exitDy=0;entryX=0;entryY=0.5;entryDx=0;entryDy=0;strokeColor=#FFE599;" edge="1" parent="1" source="VFld33UGMpaozwM7hutt-7" target="VFld33UGMpaozwM7hutt-12">
          <mxGeometry relative="1" as="geometry" />
        </mxCell>
        <mxCell id="VFld33UGMpaozwM7hutt-7" value="CNOT q3,q2" style="ellipse;whiteSpace=wrap;html=1;strokeColor=#FFE599;fillColor=#FFF2CC;" vertex="1" parent="1">
          <mxGeometry x="570" y="330" width="100" height="50" as="geometry" />
        </mxCell>
        <mxCell id="VFld33UGMpaozwM7hutt-8" style="edgeStyle=orthogonalEdgeStyle;rounded=0;orthogonalLoop=1;jettySize=auto;html=1;exitX=1;exitY=0.5;exitDx=0;exitDy=0;entryX=0;entryY=0.5;entryDx=0;entryDy=0;strokeColor=#FFE599;" edge="1" parent="1" source="VFld33UGMpaozwM7hutt-9" target="VFld33UGMpaozwM7hutt-5">
          <mxGeometry relative="1" as="geometry" />
        </mxCell>
        <mxCell id="VFld33UGMpaozwM7hutt-9" value="Y q1" style="ellipse;whiteSpace=wrap;html=1;strokeColor=#FFE599;fillColor=#FFF2CC;" vertex="1" parent="1">
          <mxGeometry x="320" y="260" width="100" height="50" as="geometry" />
        </mxCell>
        <mxCell id="VFld33UGMpaozwM7hutt-10" style="edgeStyle=orthogonalEdgeStyle;rounded=0;orthogonalLoop=1;jettySize=auto;html=1;exitX=1;exitY=0.5;exitDx=0;exitDy=0;entryX=0;entryY=0.5;entryDx=0;entryDy=0;strokeColor=#FFE599;" edge="1" parent="1" source="VFld33UGMpaozwM7hutt-11" target="VFld33UGMpaozwM7hutt-7">
          <mxGeometry relative="1" as="geometry" />
        </mxCell>
        <mxCell id="VFld33UGMpaozwM7hutt-11" value="H q3" style="ellipse;whiteSpace=wrap;html=1;strokeColor=#FFE599;fillColor=#FFF2CC;" vertex="1" parent="1">
          <mxGeometry x="170" y="330" width="100" height="50" as="geometry" />
        </mxCell>
        <mxCell id="VFld33UGMpaozwM7hutt-12" value="Z q2" style="ellipse;whiteSpace=wrap;html=1;strokeColor=#FFE599;fillColor=#FFF2CC;" vertex="1" parent="1">
          <mxGeometry x="720" y="330" width="100" height="50" as="geometry" />
        </mxCell>
        <mxCell id="VFld33UGMpaozwM7hutt-13" value="q1" style="text;html=1;strokeColor=none;fillColor=none;align=center;verticalAlign=middle;whiteSpace=wrap;rounded=0;fontColor=#FFE599;" vertex="1" parent="1">
          <mxGeometry x="260" y="260" width="60" height="30" as="geometry" />
        </mxCell>
        <mxCell id="VFld33UGMpaozwM7hutt-14" value="q1" style="text;html=1;strokeColor=none;fillColor=none;align=center;verticalAlign=middle;whiteSpace=wrap;rounded=0;fontColor=#FFE599;" vertex="1" parent="1">
          <mxGeometry x="400" y="260" width="60" height="30" as="geometry" />
        </mxCell>
        <mxCell id="VFld33UGMpaozwM7hutt-15" value="q2" style="text;html=1;strokeColor=none;fillColor=none;align=center;verticalAlign=middle;whiteSpace=wrap;rounded=0;fontColor=#FFE599;" vertex="1" parent="1">
          <mxGeometry x="590" y="270" width="60" height="30" as="geometry" />
        </mxCell>
        <mxCell id="VFld33UGMpaozwM7hutt-16" value="q2" style="text;html=1;strokeColor=none;fillColor=none;align=center;verticalAlign=middle;whiteSpace=wrap;rounded=0;fontColor=#FFE599;" vertex="1" parent="1">
          <mxGeometry x="660" y="330" width="60" height="30" as="geometry" />
        </mxCell>
        <mxCell id="VFld33UGMpaozwM7hutt-17" value="q3" style="text;html=1;strokeColor=none;fillColor=none;align=center;verticalAlign=middle;whiteSpace=wrap;rounded=0;fontColor=#FFE599;" vertex="1" parent="1">
          <mxGeometry x="384" y="330" width="60" height="30" as="geometry" />
        </mxCell>
      </root>
    </mxGraphModel>
  </diagram>
</mxfile>
